<svg width="600" height="360" viewBox="0 0 600 360" fill="none" xmlns="http://www.w3.org/2000/svg">
<path d="M284.45 307.711L222.369 344.961C214.807 349.498 204.404 352 193.573 352C182.743 352 172.341 349.498 164.778 344.961L17.748 256.742C10.1805 252.202 8 247.291 8 243.855C8.00002 240.42 10.1805 235.509 17.748 230.969L87.1465 189.329L284.45 307.711ZM582.252 230.969C589.819 235.509 592 240.42 592 243.855C592 247.291 589.819 252.202 582.252 256.742L435.223 344.961C427.66 349.499 417.257 352 406.427 352C395.596 352 385.194 349.498 377.631 344.961L315.548 307.711L512.852 189.328L582.252 230.969ZM193.573 8C204.404 7.99999 214.806 10.5016 222.369 15.0391L284.45 52.2871L87.1455 170.67L17.748 129.031C10.1807 124.491 8 119.579 8 116.144C8.00019 112.708 10.181 107.797 17.748 103.257L164.777 15.0391C172.34 10.5015 182.743 8.00007 193.573 8ZM406.427 8C417.257 8.00003 427.66 10.5015 435.223 15.0391L582.252 103.257C589.819 107.797 592 112.708 592 116.144C592 119.579 589.819 124.49 582.252 129.03L512.852 170.67L315.548 52.2871L377.631 15.0391C385.194 10.5015 395.596 8 406.427 8Z" fill="white" fill-opacity="0.3" stroke="white" stroke-width="16"/>
</svg>
