<svg width="600" height="360" viewBox="0 0 600 360" fill="none" xmlns="http://www.w3.org/2000/svg">
<path d="M586.368 224.109C604.544 235.014 604.544 252.697 586.368 263.602L439.338 351.821C421.162 362.727 391.691 362.726 373.515 351.821L300 307.712L512.852 179.999L586.368 224.109ZM300 307.712L226.485 351.821C208.309 362.727 178.839 362.726 160.662 351.821L13.6325 263.602C-4.54415 252.697 -4.54415 235.015 13.6325 224.109L87.1466 179.999L300 307.712ZM160.662 8.17945C178.838 -2.72639 208.309 -2.72646 226.485 8.17945L300 52.2874L87.1466 179.999L13.6325 135.892C-4.54415 124.986 -4.54415 107.302 13.6325 96.3965L160.662 8.17945ZM373.515 8.17945C391.691 -2.72648 421.162 -2.72649 439.338 8.17945L586.368 96.3965C604.544 107.302 604.544 124.984 586.368 135.89L512.852 179.999L300 52.2874L373.515 8.17945Z" fill="white"/>
</svg>
