<svg width="1024" height="1024" viewBox="0 0 1024 1024" fill="none" xmlns="http://www.w3.org/2000/svg">
<g clip-path="url(#clip0_628_202)">
<path d="M-1488 -1277.47V-1488H-1277.47M-1488 -1277.47V-1066.95M-1488 -1277.47H-1277.47M-1277.47 -1488V-1277.47M-1277.47 -1488H-1066.95M-1488 -1066.95V-856.422M-1488 -1066.95H-1277.47M-1277.47 -1277.47V-1066.95M-1277.47 -1277.47H-1066.95M-1488 -856.422V-645.894M-1488 -856.422H-1277.47M-1277.47 -1066.95V-856.422M-1277.47 -1066.95H-1066.95M-1488 -645.894V-435.368M-1488 -645.894H-1277.47M-1277.47 -856.422V-645.894M-1277.47 -856.422H-1066.95M-1488 -435.368V-224.842M-1488 -435.368H-1277.47M-1277.47 -645.894V-435.368M-1277.47 -645.894H-1066.95M-1488 -224.842V-14.3159M-1488 -224.842H-1277.47M-1277.47 -435.368V-224.842M-1277.47 -435.368H-1066.95M-1488 -14.3159V196.21M-1488 -14.3159H-1277.47M-1277.47 -224.842V-14.3159M-1277.47 -224.842H-1066.95M-1488 196.21V406.736M-1488 196.21H-1277.47M-1277.47 -14.3159V196.21M-1277.47 -14.3159H-1066.95M-1488 406.736V617.264M-1488 406.736H-1277.47M-1277.47 196.21V406.736M-1277.47 196.21H-1066.95M-1488 617.264V827.79M-1488 617.264H-1277.47M-1277.47 406.736V617.264M-1277.47 406.736H-1066.95M-1488 827.79V1038.32M-1488 827.79H-1277.47M-1277.47 617.264V827.79M-1277.47 617.264H-1066.95M-1488 1038.32V1248.84M-1488 1038.32H-1277.47M-1277.47 827.79V1038.32M-1277.47 827.79H-1066.95M-1488 1248.84V1459.37M-1488 1248.84H-1277.47M-1277.47 1038.32V1248.84M-1277.47 1038.32H-1066.95M-1488 1459.37V1669.89M-1488 1459.37H-1277.47M-1277.47 1248.84V1459.37M-1277.47 1248.84H-1066.95M-1488 1669.89V1880.42M-1488 1669.89H-1277.47M-1277.47 1459.37V1669.89M-1277.47 1459.37H-1066.95M-1488 1880.42V2090.95M-1488 1880.42H-1277.47M-1277.47 1669.89V1880.42M-1277.47 1669.89H-1066.95M-1488 2090.95V2301.47M-1488 2090.95H-1277.47M-1277.47 1880.42V2090.95M-1277.47 1880.42H-1066.95M-1488 2301.47V2512H-1277.47M-1488 2301.47H-1277.47M-1277.47 2090.95V2301.47M-1277.47 2090.95H-1066.95M-1277.47 2512V2301.47M-1277.47 2512H-1066.95M-1277.47 2301.47H-1066.95M-1066.95 -1488V-1277.47M-1066.95 -1488H-856.423M-1066.95 -1277.47V-1066.95M-1066.95 -1277.47H-856.423M-1066.95 -1066.95V-856.422M-1066.95 -1066.95H-856.423M-1066.95 -856.422V-645.894M-1066.95 -856.422H-856.423M-1066.95 -645.894V-435.368M-1066.95 -645.894H-856.423M-1066.95 -435.368V-224.842M-1066.95 -435.368H-856.423M-1066.95 -224.842V-14.3159M-1066.95 -224.842H-856.423M-1066.95 -14.3159V196.21M-1066.95 -14.3159H-856.423M-1066.95 196.21V406.736M-1066.95 196.21H-856.423M-1066.95 406.736V617.264M-1066.95 406.736H-856.423M-1066.95 617.264V827.79M-1066.95 617.264H-856.423M-1066.95 827.79V1038.32M-1066.95 827.79H-856.423M-1066.95 1038.32V1248.84M-1066.95 1038.32H-856.423M-1066.95 1248.84V1459.37M-1066.95 1248.84H-856.423M-1066.95 1459.37V1669.89M-1066.95 1459.37H-856.423M-1066.95 1669.89V1880.42M-1066.95 1669.89H-856.423M-1066.95 1880.42V2090.95M-1066.95 1880.42H-856.423M-1066.95 2090.95V2301.47M-1066.95 2090.95H-856.423M-1066.95 2301.47V2512M-1066.95 2301.47H-856.423M-1066.95 2512H-856.423M-856.423 -1488V-1277.47M-856.423 -1488H-645.896M-856.423 -1277.47V-1066.95M-856.423 -1277.47H-645.896M-856.423 -1066.95V-856.422M-856.423 -1066.95H-645.896M-856.423 -856.422V-645.894M-856.423 -856.422H-645.896M-856.423 -645.894V-435.368M-856.423 -645.894H-645.896M-856.423 -435.368V-224.842M-856.423 -435.368H-645.896M-856.423 -224.842V-14.3159M-856.423 -224.842H-645.896M-856.423 -14.3159V196.21M-856.423 -14.3159H-645.896M-856.423 196.21V406.736M-856.423 196.21H-645.896M-856.423 406.736V617.264M-856.423 406.736H-645.896M-856.423 617.264V827.79M-856.423 617.264H-645.896M-856.423 827.79V1038.32M-856.423 827.79H-645.896M-856.423 1038.32V1248.84M-856.423 1038.32H-645.896M-856.423 1248.84V1459.37M-856.423 1248.84H-645.896M-856.423 1459.37V1669.89M-856.423 1459.37H-645.896M-856.423 1669.89V1880.42M-856.423 1669.89H-645.896M-856.423 1880.42V2090.95M-856.423 1880.42H-645.896M-856.423 2090.95V2301.47M-856.423 2090.95H-645.896M-856.423 2301.47V2512M-856.423 2301.47H-645.896M-856.423 2512H-645.896M-645.896 -1488V-1277.47M-645.896 -1488H-435.368M-645.896 -1277.47V-1066.95M-645.896 -1277.47H-435.368M-645.896 -1066.95V-856.422M-645.896 -1066.95H-435.368M-645.896 -856.422V-645.894M-645.896 -856.422H-435.368M-645.896 -645.894V-435.368M-645.896 -645.894H-435.368M-645.896 -435.368V-224.842M-645.896 -435.368H-435.368M-645.896 -224.842V-14.3159M-645.896 -224.842H-435.368M-645.896 -14.3159V196.21M-645.896 -14.3159H-435.368M-645.896 196.21V406.736M-645.896 196.21H-435.368M-645.896 406.736V617.264M-645.896 406.736H-435.368M-645.896 617.264V827.79M-645.896 617.264H-435.368M-645.896 827.79V1038.32M-645.896 827.79H-435.368M-645.896 1038.32V1248.84M-645.896 1038.32H-435.368M-645.896 1248.84V1459.37M-645.896 1248.84H-435.368M-645.896 1459.37V1669.89M-645.896 1459.37H-435.368M-645.896 1669.89V1880.42M-645.896 1669.89H-435.368M-645.896 1880.42V2090.95M-645.896 1880.42H-435.368M-645.896 2090.95V2301.47M-645.896 2090.95H-435.368M-645.896 2301.47V2512M-645.896 2301.47H-435.368M-645.896 2512H-435.368M-435.368 -1488V-1277.47M-435.368 -1488H-224.841M-435.368 -1277.47V-1066.95M-435.368 -1277.47H-224.841M-435.368 -1066.95V-856.422M-435.368 -1066.95H-224.841M-435.368 -856.422V-645.894M-435.368 -856.422H-224.841M-435.368 -645.894V-435.368M-435.368 -645.894H-224.841M-435.368 -435.368V-224.842M-435.368 -435.368H-224.841M-435.368 -224.842V-14.3159M-435.368 -224.842H-224.841M-435.368 -14.3159V196.21M-435.368 -14.3159H-224.841M-435.368 196.21V406.736M-435.368 196.21H-224.841M-435.368 406.736V617.264M-435.368 406.736H-224.841M-435.368 617.264V827.79M-435.368 617.264H-224.841M-435.368 827.79V1038.32M-435.368 827.79H-224.841M-435.368 1038.32V1248.84M-435.368 1038.32H-224.841M-435.368 1248.84V1459.37M-435.368 1248.84H-224.841M-435.368 1459.37V1669.89M-435.368 1459.37H-224.841M-435.368 1669.89V1880.42M-435.368 1669.89H-224.841M-435.368 1880.42V2090.95M-435.368 1880.42H-224.841M-435.368 2090.95V2301.47M-435.368 2090.95H-224.841M-435.368 2301.47V2512M-435.368 2301.47H-224.841M-435.368 2512H-224.841M-224.841 -1488V-1277.47M-224.841 -1488H-14.3135M-224.841 -1277.47V-1066.95M-224.841 -1277.47H-14.3135M-224.841 -1066.95V-856.422M-224.841 -1066.95H-14.3135M-224.841 -856.422V-645.894M-224.841 -856.422H-14.3135M-224.841 -645.894V-435.368M-224.841 -645.894H-14.3135M-224.841 -435.368V-224.842M-224.841 -435.368H-14.3135M-224.841 -224.842V-14.3159M-224.841 -224.842H-14.3135M-224.841 -14.3159V196.21M-224.841 -14.3159H-14.3135M-224.841 196.21V406.736M-224.841 196.21H-14.3135M-224.841 406.736V617.264M-224.841 406.736H-14.3135M-224.841 617.264V827.79M-224.841 617.264H-14.3135M-224.841 827.79V1038.32M-224.841 827.79H-14.3135M-224.841 1038.32V1248.84M-224.841 1038.32H-14.3135M-224.841 1248.84V1459.37M-224.841 1248.84H-14.3135M-224.841 1459.37V1669.89M-224.841 1459.37H-14.3135M-224.841 1669.89V1880.42M-224.841 1669.89H-14.3135M-224.841 1880.42V2090.95M-224.841 1880.42H-14.3135M-224.841 2090.95V2301.47M-224.841 2090.95H-14.3135M-224.841 2301.47V2512M-224.841 2301.47H-14.3135M-224.841 2512H-14.3135M-14.3135 -1488V-1277.47M-14.3135 -1488H196.209M-14.3135 -1277.47V-1066.95M-14.3135 -1277.47H196.209M-14.3135 -1066.95V-856.422M-14.3135 -1066.95H196.209M-14.3135 -856.422V-645.894M-14.3135 -856.422H196.209M-14.3135 -645.894V-435.368M-14.3135 -645.894H196.209M-14.3135 -435.368V-224.842M-14.3135 -435.368H196.209M-14.3135 -224.842V-14.3159M-14.3135 -224.842H196.209M-14.3135 -14.3159V196.21M-14.3135 -14.3159H196.209M-14.3135 196.21V406.736M-14.3135 196.21H196.209M-14.3135 406.736V617.264M-14.3135 406.736H196.209M-14.3135 617.264V827.79M-14.3135 617.264H196.209M-14.3135 827.79V1038.32M-14.3135 827.79H196.209M-14.3135 1038.32V1248.84M-14.3135 1038.32H196.209M-14.3135 1248.84V1459.37M-14.3135 1248.84H196.209M-14.3135 1459.37V1669.89M-14.3135 1459.37H196.209M-14.3135 1669.89V1880.42M-14.3135 1669.89H196.209M-14.3135 1880.42V2090.95M-14.3135 1880.42H196.209M-14.3135 2090.95V2301.47M-14.3135 2090.95H196.209M-14.3135 2301.47V2512M-14.3135 2301.47H196.209M-14.3135 2512H196.209M196.209 -1488V-1277.47M196.209 -1488H406.736M196.209 -1277.47V-1066.95M196.209 -1277.47H406.736M196.209 -1066.95V-856.422M196.209 -1066.95H406.736M196.209 -856.422V-645.894M196.209 -856.422H406.736M196.209 -645.894V-435.368M196.209 -645.894H406.736M196.209 -435.368V-224.842M196.209 -435.368H406.736M196.209 -224.842V-14.3159M196.209 -224.842H406.736M196.209 -14.3159V196.21M196.209 -14.3159H406.736M196.209 196.21V406.736M196.209 196.21H406.736M196.209 406.736V617.264M196.209 406.736H406.736M196.209 617.264V827.79M196.209 617.264H406.736M196.209 827.79V1038.32M196.209 827.79H406.736M196.209 1038.32V1248.84M196.209 1038.32H406.736M196.209 1248.84V1459.37M196.209 1248.84H406.736M196.209 1459.37V1669.89M196.209 1459.37H406.736M196.209 1669.89V1880.42M196.209 1669.89H406.736M196.209 1880.42V2090.95M196.209 1880.42H406.736M196.209 2090.95V2301.47M196.209 2090.95H406.736M196.209 2301.47V2512M196.209 2301.47H406.736M196.209 2512H406.736M406.736 -1488V-1277.47M406.736 -1488H617.264M406.736 -1277.47V-1066.95M406.736 -1277.47H617.264M406.736 -1066.95V-856.422M406.736 -1066.95H617.264M406.736 -856.422V-645.894M406.736 -856.422H617.264M406.736 -645.894V-435.368M406.736 -645.894H617.264M406.736 -435.368V-224.842M406.736 -435.368H617.264M406.736 -224.842V-14.3159M406.736 -224.842H617.264M406.736 -14.3159V196.21M406.736 -14.3159H617.264M406.736 196.21V406.736M406.736 196.21H617.264M406.736 406.736V617.264M406.736 406.736H617.264M406.736 617.264V827.79M406.736 617.264H617.264M406.736 827.79V1038.32M406.736 827.79H617.264M406.736 1038.32V1248.84M406.736 1038.32H617.264M406.736 1248.84V1459.37M406.736 1248.84H617.264M406.736 1459.37V1669.89M406.736 1459.37H617.264M406.736 1669.89V1880.42M406.736 1669.89H617.264M406.736 1880.42V2090.95M406.736 1880.42H617.264M406.736 2090.95V2301.47M406.736 2090.95H617.264M406.736 2301.47V2512M406.736 2301.47H617.264M406.736 2512H617.264M617.264 -1488V-1277.47M617.264 -1488H827.791M617.264 -1277.47V-1066.95M617.264 -1277.47H827.791M617.264 -1066.95V-856.422M617.264 -1066.95H827.791M617.264 -856.422V-645.894M617.264 -856.422H827.791M617.264 -645.894V-435.368M617.264 -645.894H827.791M617.264 -435.368V-224.842M617.264 -435.368H827.791M617.264 -224.842V-14.3159M617.264 -224.842H827.791M617.264 -14.3159V196.21M617.264 -14.3159H827.791M617.264 196.21V406.736M617.264 196.21H827.791M617.264 406.736V617.264M617.264 406.736H827.791M617.264 617.264V827.79M617.264 617.264H827.791M617.264 827.79V1038.32M617.264 827.79H827.791M617.264 1038.32V1248.84M617.264 1038.32H827.791M617.264 1248.84V1459.37M617.264 1248.84H827.791M617.264 1459.37V1669.89M617.264 1459.37H827.791M617.264 1669.89V1880.42M617.264 1669.89H827.791M617.264 1880.42V2090.95M617.264 1880.42H827.791M617.264 2090.95V2301.47M617.264 2090.95H827.791M617.264 2301.47V2512M617.264 2301.47H827.791M617.264 2512H827.791M827.791 -1488V-1277.47M827.791 -1488H1038.31M827.791 -1277.47V-1066.95M827.791 -1277.47H1038.31M827.791 -1066.95V-856.422M827.791 -1066.95H1038.31M827.791 -856.422V-645.894M827.791 -856.422H1038.31M827.791 -645.894V-435.368M827.791 -645.894H1038.31M827.791 -435.368V-224.842M827.791 -435.368H1038.31M827.791 -224.842V-14.3159M827.791 -224.842H1038.31M827.791 -14.3159V196.21M827.791 -14.3159H1038.31M827.791 196.21V406.736M827.791 196.21H1038.31M827.791 406.736V617.264M827.791 406.736H1038.31M827.791 617.264V827.79M827.791 617.264H1038.31M827.791 827.79V1038.32M827.791 827.79H1038.31M827.791 1038.32V1248.84M827.791 1038.32H1038.31M827.791 1248.84V1459.37M827.791 1248.84H1038.31M827.791 1459.37V1669.89M827.791 1459.37H1038.31M827.791 1669.89V1880.42M827.791 1669.89H1038.31M827.791 1880.42V2090.95M827.791 1880.42H1038.31M827.791 2090.95V2301.47M827.791 2090.95H1038.31M827.791 2301.47V2512M827.791 2301.47H1038.31M827.791 2512H1038.31M1038.31 -1488V-1277.47M1038.31 -1488H1248.84M1038.31 -1277.47V-1066.95M1038.31 -1277.47H1248.84M1038.31 -1066.95V-856.422M1038.31 -1066.95H1248.84M1038.31 -856.422V-645.894M1038.31 -856.422H1248.84M1038.31 -645.894V-435.368M1038.31 -645.894H1248.84M1038.31 -435.368V-224.842M1038.31 -435.368H1248.84M1038.31 -224.842V-14.3159M1038.31 -224.842H1248.84M1038.31 -14.3159V196.21M1038.31 -14.3159H1248.84M1038.31 196.21V406.736M1038.31 196.21H1248.84M1038.31 406.736V617.264M1038.31 406.736H1248.84M1038.31 617.264V827.79M1038.31 617.264H1248.84M1038.31 827.79V1038.32M1038.31 827.79H1248.84M1038.31 1038.32V1248.84M1038.31 1038.32H1248.84M1038.31 1248.84V1459.37M1038.31 1248.84H1248.84M1038.31 1459.37V1669.89M1038.31 1459.37H1248.84M1038.31 1669.89V1880.42M1038.31 1669.89H1248.84M1038.31 1880.42V2090.95M1038.31 1880.42H1248.84M1038.31 2090.95V2301.47M1038.31 2090.95H1248.84M1038.31 2301.47V2512M1038.31 2301.47H1248.84M1038.31 2512H1248.84M1248.84 -1488V-1277.47M1248.84 -1488H1459.37M1248.84 -1277.47V-1066.95M1248.84 -1277.47H1459.37M1248.84 -1066.95V-856.422M1248.84 -1066.95H1459.37M1248.84 -856.422V-645.894M1248.84 -856.422H1459.37M1248.84 -645.894V-435.368M1248.84 -645.894H1459.37M1248.84 -435.368V-224.842M1248.84 -435.368H1459.37M1248.84 -224.842V-14.3159M1248.84 -224.842H1459.37M1248.84 -14.3159V196.21M1248.84 -14.3159H1459.37M1248.84 196.21V406.736M1248.84 196.21H1459.37M1248.84 406.736V617.264M1248.84 406.736H1459.37M1248.84 617.264V827.79M1248.84 617.264H1459.37M1248.84 827.79V1038.32M1248.84 827.79H1459.37M1248.84 1038.32V1248.84M1248.84 1038.32H1459.37M1248.84 1248.84V1459.37M1248.84 1248.84H1459.37M1248.84 1459.37V1669.89M1248.84 1459.37H1459.37M1248.84 1669.89V1880.42M1248.84 1669.89H1459.37M1248.84 1880.42V2090.95M1248.84 1880.42H1459.37M1248.84 2090.95V2301.47M1248.84 2090.95H1459.37M1248.84 2301.47V2512M1248.84 2301.47H1459.37M1248.84 2512H1459.37M1459.37 -1488V-1277.47M1459.37 -1488H1669.9M1459.37 -1277.47V-1066.95M1459.37 -1277.47H1669.9M1459.37 -1066.95V-856.422M1459.37 -1066.95H1669.9M1459.37 -856.422V-645.894M1459.37 -856.422H1669.9M1459.37 -645.894V-435.368M1459.37 -645.894H1669.9M1459.37 -435.368V-224.842M1459.37 -435.368H1669.9M1459.37 -224.842V-14.3159M1459.37 -224.842H1669.9M1459.37 -14.3159V196.21M1459.37 -14.3159H1669.9M1459.37 196.21V406.736M1459.37 196.21H1669.9M1459.37 406.736V617.264M1459.37 406.736H1669.9M1459.37 617.264V827.79M1459.37 617.264H1669.9M1459.37 827.79V1038.32M1459.37 827.79H1669.9M1459.37 1038.32V1248.84M1459.37 1038.32H1669.9M1459.37 1248.84V1459.37M1459.37 1248.84H1669.9M1459.37 1459.37V1669.89M1459.37 1459.37H1669.9M1459.37 1669.89V1880.42M1459.37 1669.89H1669.9M1459.37 1880.42V2090.95M1459.37 1880.42H1669.9M1459.37 2090.95V2301.47M1459.37 2090.95H1669.9M1459.37 2301.47V2512M1459.37 2301.47H1669.9M1459.37 2512H1669.9M1669.9 -1488V-1277.47M1669.9 -1488H1880.42M1669.9 -1277.47V-1066.95M1669.9 -1277.47H1880.42M1669.9 -1066.95V-856.422M1669.9 -1066.95H1880.42M1669.9 -856.422V-645.894M1669.9 -856.422H1880.42M1669.9 -645.894V-435.368M1669.9 -645.894H1880.42M1669.9 -435.368V-224.842M1669.9 -435.368H1880.42M1669.9 -224.842V-14.3159M1669.9 -224.842H1880.42M1669.9 -14.3159V196.21M1669.9 -14.3159H1880.42M1669.9 196.21V406.736M1669.9 196.21H1880.42M1669.9 406.736V617.264M1669.9 406.736H1880.42M1669.9 617.264V827.79M1669.9 617.264H1880.42M1669.9 827.79V1038.32M1669.9 827.79H1880.42M1669.9 1038.32V1248.84M1669.9 1038.32H1880.42M1669.9 1248.84V1459.37M1669.9 1248.84H1880.42M1669.9 1459.37V1669.89M1669.9 1459.37H1880.42M1669.9 1669.89V1880.42M1669.9 1669.89H1880.42M1669.9 1880.42V2090.95M1669.9 1880.42H1880.42M1669.9 2090.95V2301.47M1669.9 2090.95H1880.42M1669.9 2301.47V2512M1669.9 2301.47H1880.42M1669.9 2512H1880.42M1880.42 -1488V-1277.47M1880.42 -1488H2090.95M1880.42 -1277.47V-1066.95M1880.42 -1277.47H2090.95M1880.42 -1066.95V-856.422M1880.42 -1066.95H2090.95M1880.42 -856.422V-645.894M1880.42 -856.422H2090.95M1880.42 -645.894V-435.368M1880.42 -645.894H2090.95M1880.42 -435.368V-224.842M1880.42 -435.368H2090.95M1880.42 -224.842V-14.3159M1880.42 -224.842H2090.95M1880.42 -14.3159V196.21M1880.42 -14.3159H2090.95M1880.42 196.21V406.736M1880.42 196.21H2090.95M1880.42 406.736V617.264M1880.42 406.736H2090.95M1880.42 617.264V827.79M1880.42 617.264H2090.95M1880.42 827.79V1038.32M1880.42 827.79H2090.95M1880.42 1038.32V1248.84M1880.42 1038.32H2090.95M1880.42 1248.84V1459.37M1880.42 1248.84H2090.95M1880.42 1459.37V1669.89M1880.42 1459.37H2090.95M1880.42 1669.89V1880.42M1880.42 1669.89H2090.95M1880.42 1880.42V2090.95M1880.42 1880.42H2090.95M1880.42 2090.95V2301.47M1880.42 2090.95H2090.95M1880.42 2301.47V2512M1880.42 2301.47H2090.95M1880.42 2512H2090.95M2090.95 -1488V-1277.47M2090.95 -1488H2301.47M2090.95 -1277.47V-1066.95M2090.95 -1277.47H2301.47M2090.95 -1066.95V-856.422M2090.95 -1066.95H2301.47M2090.95 -856.422V-645.894M2090.95 -856.422H2301.47M2090.95 -645.894V-435.368M2090.95 -645.894H2301.47M2090.95 -435.368V-224.842M2090.95 -435.368H2301.47M2090.95 -224.842V-14.3159M2090.95 -224.842H2301.47M2090.95 -14.3159V196.21M2090.95 -14.3159H2301.47M2090.95 196.21V406.736M2090.95 196.21H2301.47M2090.95 406.736V617.264M2090.95 406.736H2301.47M2090.95 617.264V827.79M2090.95 617.264H2301.47M2090.95 827.79V1038.32M2090.95 827.79H2301.47M2090.95 1038.32V1248.84M2090.95 1038.32H2301.47M2090.95 1248.84V1459.37M2090.95 1248.84H2301.47M2090.95 1459.37V1669.89M2090.95 1459.37H2301.47M2090.95 1669.89V1880.42M2090.95 1669.89H2301.47M2090.95 1880.42V2090.95M2090.95 1880.42H2301.47M2090.95 2090.95V2301.47M2090.95 2090.95H2301.47M2090.95 2301.47V2512M2090.95 2301.47H2301.47M2090.95 2512H2301.47M2301.47 -1488V-1277.47M2301.47 -1488H2512V-1277.47M2301.47 -1277.47V-1066.95M2301.47 -1277.47H2512M2301.47 -1066.95V-856.422M2301.47 -1066.95H2512M2301.47 -856.422V-645.894M2301.47 -856.422H2512M2301.47 -645.894V-435.368M2301.47 -645.894H2512M2301.47 -435.368V-224.842M2301.47 -435.368H2512M2301.47 -224.842V-14.3159M2301.47 -224.842H2512M2301.47 -14.3159V196.21M2301.47 -14.3159H2512M2301.47 196.21V406.736M2301.47 196.21H2512M2301.47 406.736V617.264M2301.47 406.736H2512M2301.47 617.264V827.79M2301.47 617.264H2512M2301.47 827.79V1038.32M2301.47 827.79H2512M2301.47 1038.32V1248.84M2301.47 1038.32H2512M2301.47 1248.84V1459.37M2301.47 1248.84H2512M2301.47 1459.37V1669.89M2301.47 1459.37H2512M2301.47 1669.89V1880.42M2301.47 1669.89H2512M2301.47 1880.42V2090.95M2301.47 1880.42H2512M2301.47 2090.95V2301.47M2301.47 2090.95H2512M2301.47 2301.47V2512M2301.47 2301.47H2512M2301.47 2512H2512V2301.47M2512 -1277.47V-1066.95M2512 -1066.95V-856.422M2512 -856.422V-645.894M2512 -645.894V-435.368M2512 -435.368V-224.842M2512 -224.842V-14.3159M2512 -14.3159V196.21M2512 196.21V406.736M2512 406.736V617.264M2512 617.264V827.79M2512 827.79V1038.32M2512 1038.32V1248.84M2512 1248.84V1459.37M2512 1459.37V1669.89M2512 1669.89V1880.42M2512 1880.42V2090.95M2512 2090.95V2301.47" stroke="white" stroke-width="8"/>
</g>
<defs>
<clipPath id="clip0_628_202">
<rect width="1024" height="1024" fill="white"/>
</clipPath>
</defs>
</svg>
