<svg width="700" height="700" viewBox="0 0 700 700" fill="none" xmlns="http://www.w3.org/2000/svg">
<path d="M636.368 394.109C654.544 405.014 654.544 422.697 636.368 433.602L489.338 521.821C471.162 532.727 441.691 532.726 423.515 521.821L350 477.712L562.852 349.999L636.368 394.109ZM350 477.712L276.485 521.821C258.309 532.727 228.839 532.726 210.662 521.821L63.6325 433.602C45.4558 422.697 45.4558 405.015 63.6325 394.109L137.147 349.999L350 477.712ZM210.662 178.179C228.838 167.274 258.309 167.274 276.485 178.179L350 222.287L137.147 349.999L63.6325 305.892C45.4558 294.986 45.4558 277.302 63.6325 266.396L210.662 178.179ZM423.515 178.179C441.691 167.274 471.162 167.274 489.338 178.179L636.368 266.396C654.544 277.302 654.544 294.984 636.368 305.89L562.852 349.999L350 222.287L423.515 178.179Z" fill="white"/>
</svg>
